<?xml version="1.0" encoding="utf-8"?>
<!-- Generator: Adobe Illustrator 27.2.0, SVG Export Plug-In . SVG Version: 6.00 Build 0)  -->
<svg version="1.1" id="WBM" xmlns="http://www.w3.org/2000/svg" xmlns:xlink="http://www.w3.org/1999/xlink" x="0px" y="0px"
	 viewBox="0 0 512.5 538.4" style="enable-background:new 0 0 512.5 538.4;" xml:space="preserve">
<style type="text/css">
	.st0{fill:none;}
	.st1{fill:#F59A29;}
	.st2{fill:#0061A1;}
</style>
<g id="BM">
	<g>
		<g>
			<path class="st0" d="M393.4,127.1c-0.7,0.6-1.7,1.3-2.8,2.1C391.7,128.4,392.6,127.7,393.4,127.1z"/>
			<path class="st0" d="M390.6,129.3c-1.1,0.8-2.4,1.8-3.7,2.8C388.2,131.1,389.5,130.1,390.6,129.3z"/>
			<path class="st0" d="M372.6,143.1c-1.1,0.8-2,1.6-2.7,2.1C370.6,144.7,371.6,143.9,372.6,143.1z"/>
			<path class="st0" d="M386.9,132.1c-4,3.1-8.8,6.8-12.5,9.6C378.1,138.9,382.9,135.2,386.9,132.1z"/>
			<path class="st1" d="M323.9,83.7C324,83.7,324,83.7,323.9,83.7c-3.4-2.3-9-4.8-12.5-6.7C192.5,13.5,19.5,70.7,1.5,241.6
				c-0.3,2.6-0.5,5.2-0.7,7.8C0.3,256.5,0,263.6,0,270.8c0,87.7,39.6,166.1,101.9,218.4c-18.1-19.5-30.1-105.1,7.1-138.1
				c18.8-16.7,57.7-9.1,57.7-9.1s-16.3-14.3-22.6-22.6c-112.3-148.5,32-287.8,152-230.3c2.2-0.7,14.1-4,23.6-5
				C321.2,83.9,322.5,83.8,323.9,83.7z"/>
			<g>
				<path class="st2" d="M511.6,211.9c0-0.2-0.4-1.8-0.5-2l-1.9-2c-0.3-0.4-2.6-1-3.1-0.9c0,0-2.3-0.5-2.5-1.1l-0.2-0.5
					c-0.2-0.4-0.2-0.8-0.1-1.2l0.4-1.2c0.2-0.6,0-1.1-0.3-1.6c-0.5-0.7-1.3-1.5-1.7-2c-0.2-0.2-0.4-0.3-0.7-0.4l-4.5-1.7h-0.1
					c0,0-3.2-1.3-5.2-1.5c-1.9-0.2-3.9,0.2-3.9,0.2l-12.6,3.7c-0.3,0-0.6,0-1,0l-7.5-2.8l-23.1-20.5c-0.2-0.1-0.3-0.2-0.5-0.3
					l-1.6-0.7c-0.3-0.1-0.5-0.1-0.8-0.1l-0.9,0.1c-0.5,0.1-1-0.4-1.4-0.8c-0.3-0.3-0.5-0.7-0.7-1.2c-0.1-0.2-0.1-0.5-0.2-0.7
					c-0.2-0.9-0.5-1.9-0.4-2.1v-2.3c0.1-0.4-0.5-3.9-0.6-4.3l-3.3-11.9c-0.1-0.5-1.7-4-2-4.4l-2-2.3c-0.4-0.4-0.6-0.9-0.8-1.5
					l-0.5-2.2c-0.3-1.2-0.3-2.4,0-3.6l0.7-3.4c0.1-0.6,0.2-1.1,0.2-1.7v-11.3c0,0,1.3-13.6-15.5-19.2c-5.2-1.8-12.1-2.8-21.4-2.4
					c-0.4,0-0.6,0-0.6,0c-0.1,0-0.2,0-0.2-0.1l-0.3-0.2c-16.3-9.2-21.6-9.5-21.6-9.5c-0.3-0.1-0.5-0.4-0.5-0.7l-0.8-4.2
					c6.9-3,7.8-6.7,9.1-9.8c0.2-0.5,0.7-1.5,1.1-2.1c0.1-0.1,0.1-0.2,0.2-0.3c0.4-0.3,0.8,0.3,1.3,0.1c0,0,0,0,0.1,0
					c0.1-0.1,0.5-0.2,0.8-0.4c0.3-0.2,0.6-0.5,0.7-0.9l3.8-15.6c0.1-0.2,0-0.5,0-0.7l-0.3-0.9c-0.1-0.4-0.4-0.7-0.8-0.8
					c-0.3-0.1-0.7-0.2-1.1-0.2c0-0.5,0-0.9,0-1.3c0-0.3,0.1-0.7,0.3-0.9c0.5-0.8,1-1.5,1.3-2.4c1.4-4.5,2.1-8.9,2.2-13.1
					c1.4-6.8-0.7-8,6.6-19.1c1.6-2.4,1.7-2.7,0.6-3.6c0,0-7.4-4.5-10-2.6s-4.2-1.9-4.6-3.1c-0.9-2.9,2.6-4.2,3.3-5.1
					c-1.4-0.5-2.9-1-4.3-1.5c-2.2-0.3-5.2-0.6-9.6-1c-11.7-1-11.9,3.9-19.3,6.6c-0.8,0.4-1.6,0-2-0.7c-0.1-0.3-0.2-0.5-0.2-0.9
					l0.1-1.2l0.1-0.5c0.2-1.4-4.9,0.2-6,1.2l-8.6,8.8l-0.3,0.3c-0.3,0.3-0.4,0.6-0.5,0.9L329.3,30c-1.1,2.7-1.7,5.6-1.5,8.5
					c0.2,2.2,0.8,4.4,1.5,6.6c-0.4-0.2-0.9-0.4-1.3-0.5c-0.5-0.1-1.1,0-1.6,0.3l-1.7,1.3c-0.5,0.4-0.8,1.1-0.7,1.7l2.5,15.6
					c0.1,0.5,0.3,0.9,0.7,1.2c0.1,0.1,0.2,0.2,0.4,0.3l0,0c1.2,0.8,3.1,1.9,4,1.1c0,0.1,0,0.3,0.1,0.5c0.4,2.1,2.7,10.2,2.4,14.5
					l-0.7,2c-3.3,0.2-6.5,0.4-9.3,0.6H324c-1.4,0.1-2.8,0.2-3.9,0.3c-9.5,1-21.5,4.3-23.6,5h-0.1c-0.2,0.1-0.3,0.1-0.3,0.1
					s-0.2,0-0.4,0c-1.1-0.1-4-0.5-4.1-0.5l0,0c-2.2,0.1-4.6,0.5-7.2,1.5c-1,0.4-2.1,0.9-3.2,1.4c-4.9,2.5-10.7,5.6-14.4,12.8
					l-1.1,3.2l-3.8,8.1l-25.2,23.9l-14.8,16.4c0,0-5.2-1.7-8.2-0.1c-3,1.6-7,10.1-6.2,17.4c2.2,12.4,12.8,68.3,13.4,69.1
					c0.6,0.8,3.2,1.6,3.2,1.6l3.3,9.3c0,0,4.5,10.2,6.4,11.7c1.8,1.4,14.5,3.7,14.5,3.7c2.3,0.1,3.8-2.8,4.9-4.6
					c2.8-0.4,3.3-0.5,4.2-1.2c1-0.7,1.9-2.6,1.7-5.7c2-1,2.9-1.4,3.7-1.9c0.7-0.4,1.2-1,1.4-1.7c0.2-1,0.4-1.4-0.4-5.3
					c2.7-2.8,5.3-4.8,2-8.8c-1.8-2.2-5.5-3.5-9-5.3c-1.6-4.9-0.6-4.5-5.1-6.7c-3.5-1.7-5.8-2.6-8.1-2.8c3.7-9.4,6-46.2,7.8-52.5
					c9.3-8.1,23-17.6,24.3-25.2c0,0,6.5-3.5,12.1-6.4c0.9-0.4,4.1,0.1,6.4,0.5c0.6,2.1,2.9,9.4,4.2,12c1.5,3,7.8,9.8,8.5,10.5
					l1.3,1.3c0.9,0.8,1.5,1.9,1.8,3l5.7,18.7c0.4,1.3,0.6,2.7,0.5,4.1l-1.4,20.7c-0.1,1.4-0.5,2.8-1.1,4l-2.5,5
					c-0.3,0.7-0.7,1.3-1.1,2l-1.7,2.6c-0.6,0.9-1.2,1.8-1.9,2.6c-0.3,0.4-0.7,0.8-1.1,1.1c-0.2,0.2-0.4,0.4-0.6,0.6
					c-1.7,1.6-3.1,3.6-4.1,5.6c-0.3,0.5-0.7,1-0.9,1.5c-2.2,4-9.5,12.6-10.3,26.9v2.2l-0.6,5.9c-0.1,0.9-0.4,1.7-0.9,2.5l-4.7,6.7
					c-0.3,0.4-4.4,8-4.5,8.4c0,0-6.2,13.2-8.1,21.8c-2,8.6-2.4,9.6-2.4,9.9l-0.9,10.8c-0.1,0.5,0.1,5.4,0.2,7.9s-0.1,4.5-1.1,6
					s-2.1,2-3.4,4.7c-1.3,3-5.3,9.9-5.8,11.7c-0.6,1.8-1,4.2-1,5.2s0.3,1.9-1.1,3.4c-1.4,1.4-0.7,0.3-4.3,2.9
					c-3.6,2.5-10,11.4-15.1,21.2c-1.5,2.9-5.1,12.8-5.1,12.8s-2.2-0.9-4.2-0.4c-2,0.4-3.5,1.3-3.7,3.1c-0.2,1.8-5.8,37.4-5.8,37.4
					c-0.1,0.4-0.3,0.8-0.5,1.1l-2.4,4.7c-0.1,0.1-0.3,0.3-0.4,0.4c0,0-3.7,3.3-4.3,4c-0.7,0.7-1.9,3-2.1,4.2
					c-0.2,0.4-0.5,0.9-0.7,1.3l-12.2,14.1c-0.1,0.1-0.1,0.1-0.2,0.2l-25,23.5l-0.1,0.1l-2.5,2.1c-1.3,1.5-1.7,3.1-1.7,3.7l-1.3,16.3
					c0,0.4,0,2.3,0.2,2.6c0,0,0.4,2,1.1,2.9s1.5,1.1,2,1.3l7.7,3.8c4,1.7,8,3.3,12.1,4.8c0.6,0,1.1-0.1,1.6-0.2l9.2-2.7
					c0.3-0.1,0.6-0.2,0.9-0.4l1.9-1.4c0.3-0.2,0.6-0.5,0.7-0.9l11.4-24.8c0.1-0.2,0.2-0.3,0.3-0.5l10.6-12.9
					c0.1-0.1,0.1-0.1,0.2-0.2l1.6-2.5c0.3-0.5,0.8-1.1,0.6-1.7c0,0,0-2.5,0.1-2.8l1.8-6.9c0.2-0.6,0.5-1.1,1-1.4l1.4-1.2
					c0.4-0.2,0.7-0.6,0.9-1l2.2-5c0.1-0.1,0.1-0.3,0.2-0.4l6.5-9.3c0.1-0.2,0.4-0.4,0.5-0.6l33.5-35c0.5-0.4,0.9-2.9,0.4-4.2
					c-0.4-1.3-1.3-2.2-2.3-4c2.2-4.5,17.7-25.7,17.9-33.4c0.1-3.7,0.1-1.8,3.3-4.4c2.3-1.9,9.3-15.9,10.1-18.3
					c1.3-3.9-0.4-2.7,1.5-6.2c5.7-10.5,9.7-11.4,16.1-17.4c6.4-5.9,12.6-15.3,18.1-23.7c4.9-7.6,9.5-15.5,14.6-23.7
					c0,0.1,10,1.6,10,1.6c1.2,0.4,2.3,0.9,3.1,1.6c7.4,7,20.9,22.6,24,26.2c0.2,0.3,0,0.7-0.3,0.7l-7.4-0.3c-0.6,0-1.2-0.2-1.7-0.6
					l-2.3-1.7c-0.4-0.3-0.9-0.5-1.5-0.6l-7.2-0.8c-0.5,0.1-1,0.1-1.5,0.2l-6,2.4c-0.2,0.1-0.3,0.1-0.5,0.2l-0.6,0.4
					c-0.7,0.4-1.2,1.2-1.4,2l-5.1,25.5c0,0.2-0.1,0.3-0.1,0.5l-3.9,10.3c0,0.1,0,0.1-0.1,0.2l-4.6,14.9c-0.1,0.4-0.1,3.4,0,3.8
					l3.9,13.1c0.1,0.8,2.5,3.2,4.2,3.8c1.7,0.6,8.9,1.4,8.9,1.4c1.4,0.2,2.9,0.2,4.3-0.1c1.9-0.4,3.7-1.2,5.3-2.4l4.7-3.6
					c0.6-0.4,2-2.5,2.2-3.1l0.3-1.1c0-0.1,0-0.2,0.1-0.3l1.9-28.1c0.1-0.4,0.2-0.7,0.4-1l1-1.8c0.7-1.3,2.2-1.9,3.6-1.4l10.8,6.6
					l16,10.9c0.1,0.1,0.2,0.1,0.4,0.1l3.7,1c0.5,0.1,1,0.1,1.5-0.1l2.9-1.3c0.5-0.2,4.6-3.8,4.6-3.8c0.1-0.3,9.8,2.5,11,2.6
					c1.3,0.1,2.3-1.4,2.3-1.4c0.2-0.2,0.5-0.2,0.8-0.3l1.1-0.1c0.5,0,1-0.3,1.3-0.7l8.8-7.3c0.5-0.7,0.9-1.8,0.8-2.7
					c0,0,0.4-4.6,0.5-5.1c0,0,0.2-0.6,0.5-2.6c0.2-2-0.8-7.8-0.9-8.1c0,0-2.3-32.9-15.1-56.2c-11.4-20.7-17.6-26.2-20.8-28.9
					c-0.4-0.3-9.7-8.4-11.9-9.7s-4.1-2.3-4.1-2.3c-0.7-0.3-1.3-0.8-1.8-1.4l-9.2-8.5l-1.3-6.3l-0.4-1.9l3-17.9c0-0.1,0-0.2,0.1-0.3
					l2.4-22.7l5.8-10.2c0.9-1.6,1.6-3.2,2-5c4.5,8,9.1,18.8,10.7,22.5c-0.4,0.7-0.6,0.8-0.7,2.2c0,1.4,0.2,3.1,0.7,4.7
					c0.4,1.5,1.4,3.4,1.9,4.2l0.8,1.3c0.4,0.7,1,1.2,1.8,1.5l15.8,4.3c12.8,3.8,29.2,11.4,35.8,14.2c0.8,0.3,1.8-1.8,2.2-1.5
					c4.5,2.5,13.7,10.2,15.1,11.3c0.1,0.1,0.3,0.2,0.4,0.2l4.5,1.6c0.5,0.2,1,0.1,1.4-0.3l2-1.8c0.4-0.3,0.9-0.4,1.4-0.3l2.2,0.2
					c0.5,0.2,1.1,0,1.5-0.4l1.8-2.1c0.3-0.3,0.6-0.4,1-0.4h1.7c0.5,0,1-0.3,1.2-0.7l1.8-3.5c0.2-0.3,0.5-0.6,0.8-0.7l2.5-0.8
					c0.3-0.1,0.6-0.3,0.8-0.7l1.2-2.3c0.1-0.2,0.2-0.5,0.2-0.7L511.6,211.9z M394.3,126.4c-0.2,0.2-0.6,0.4-0.9,0.7
					c-0.7,0.6-1.7,1.3-2.8,2.1s-2.4,1.8-3.7,2.8c-4,3.1-8.8,6.8-12.5,9.6c-0.6,0.5-1.2,0.9-1.7,1.4c-1.1,0.8-2,1.6-2.7,2.1
					c-0.7,0.6-1.2,0.9-1.4,1.1c-0.6,0.5-1.3,1-2,1.4c-0.3,0.2-0.7,0.4-1.1,0.7c-0.2,0.1-0.4,0.3-0.6,0.4c-0.4,0.2-0.8,0.5-1.2,0.6
					c-0.6,0.2-1.2,0.4-1.8,0.1c-1.6-0.8-43.4-23.2-43.7-23.6c-0.5-0.4-1.1-1.1-1.2-1.5c-0.3-1.1-0.5-2.2-0.7-3.3
					c-0.2-1.1-0.4-2.3-0.6-3.3c-0.1-0.5,0-0.7,0.3-1.1c0.1-0.1,0.2-0.4,0.5-0.7c0.7-0.9,1.9-2.5,2.7-2.9c1.8-0.8,3.7-1.2,5.6-1.8
					c0.5-0.1,1-0.3,1.5-0.4c2-0.5,3.6-1,5.4-1.5c1.3-0.4,2.7-0.7,4.4-1.1c0.4-0.1,0.8-0.2,1.3-0.3c1.3-0.4,2.8-0.7,4.1-0.6
					c0.1,0,0.3,0,0.6,0c0.3,0,0.7,0,1.3,0.1c0.3,0,0.5,0,0.8,0c1.2,0.1,2.8,0.2,4.6,0.3c0.4,0,0.9,0.1,1.4,0.1
					c1.4,0.1,2.9,0.2,4.5,0.3c1.6,0.1,3.2,0.2,4.9,0.3c1.6,0.1,3.3,0.2,4.9,0.3c0.5,0,1.1,0.1,1.6,0.1c1,0.1,2.1,0.2,3,0.2
					c4.9,0.4,8.7,0.7,9.6,1c1.3,0.3,5,1.5,8.2,2.5c1.9,0.6,3.6,1.1,4.4,1.4c0.4,0.1,0.8,0.3,1.1,0.4c1.1,0.5,1.9,1.3,2.5,2.4
					c0.6,1.2,1.3,2.4,2,3.6c0.2,0.3,0.3,0.6,0.4,1c0,0.3,0.1,0.7,0,1C397,124.5,395.6,125.4,394.3,126.4z"/>
			</g>
		</g>
	</g>
</g>
</svg>
